<?xml version="1.0" encoding="UTF-8"?>
<svg id="Layer_2" data-name="Layer 2" xmlns="http://www.w3.org/2000/svg" viewBox="0 0 87.68 112.9">
  <defs>
    <style>
      .cls-1 {
        fill: #231f20;
        stroke-width: 0px;
      }
    </style>
  </defs>
  <g id="Layer_1-2" data-name="Layer 1">
    <path class="cls-1" d="m80.32,14.12C70.5.59,51.7-3.3,36.55,2.81,19.81,9.56,8.96,25.06,3.99,41.94,1.48,50.47.09,59.54,0,68.44c-.08,7.67.88,15.6,3.77,22.76s7.66,13.44,14.5,17.2c7.9,4.35,17.23,4.98,26.05,4.23,9.28-.79,19.29-2.29,27.31-7.34,7.03-4.42,12.33-11.44,14.77-19.37.62-2.02,1-4.08,1.26-6.18.17-1.34-1.27-2.5-2.5-2.5-1.49,0-2.33,1.15-2.5,2.5-.89,7.21-4.71,13.94-10.15,18.69-6.44,5.64-15.08,7.48-23.33,8.64s-16.2,1.48-23.84-1.03c-6.69-2.2-11.96-6.92-15.27-13.08s-4.6-12.93-4.97-19.69c-.43-7.76.39-15.6,1.99-23.19,3.34-15.85,11.2-31.34,25.54-39.83,6.36-3.76,13.59-5.75,20.99-5.25,6.89.46,13.84,3.11,18.95,7.82,1.26,1.16,2.43,2.43,3.43,3.81.79,1.09,2.17,1.63,3.42.9,1.08-.63,1.69-2.32.9-3.42h0Z"/>
  </g>
</svg>